<svg width="484" height="62" viewBox="0 0 484 62" fill="none" xmlns="http://www.w3.org/2000/svg">
<path d="M272.256 24.3208C272.256 25.3659 271.408 26.2139 270.363 26.2139C270.105 26.2139 269.858 26.1606 269.633 26.066L256.082 61.9899H241.569H227.055L213.504 26.066C213.279 26.1606 213.033 26.2139 212.774 26.2139C211.729 26.2139 210.883 25.3659 210.883 24.3208C210.883 23.2756 211.731 22.4296 212.774 22.4296C213.817 22.4296 214.667 23.2776 214.667 24.3208C214.667 24.8788 214.415 25.3679 214.032 25.713L231.712 43.9126L241.202 14.9084C240.34 14.7329 239.678 14.0052 239.678 13.0902C239.678 12.045 240.526 11.1991 241.571 11.1991C242.616 11.1991 243.461 12.047 243.461 13.0902C243.461 14.0052 242.799 14.7329 241.937 14.9084L251.429 43.9126L269.109 25.713C268.724 25.3659 268.474 24.8788 268.474 24.3208C268.474 23.2756 269.322 22.4296 270.365 22.4296C271.408 22.4296 272.256 23.2756 272.256 24.3208ZM432.422 47.2571C429.177 49.0634 425.652 50.3512 421.99 50.9704C418.345 51.6191 414.657 51.6467 411.028 51.3411C403.752 50.6785 396.82 48.4778 390.183 45.9023C389.002 45.4468 387.835 44.9735 386.664 44.5022C385.209 44.8256 383.74 45.0879 382.255 45.218C378.836 45.5119 375.457 45.291 372.121 44.7526C369.983 47.6081 367.456 50.1776 364.54 52.2679C355.77 58.5803 343.991 60.0849 333.774 56.7286C328.604 55.1589 323.982 51.9702 320.082 48.5625C319.42 47.9986 318.763 47.4326 318.111 46.8686C317.622 48.0794 316.995 49.2429 316.163 50.3058C315.37 51.2957 314.376 52.191 313.168 52.7767C311.959 53.3703 310.581 53.5892 309.236 53.4215C306.45 53.0725 304.354 50.925 303.365 48.6099C302.314 46.2948 302.249 43.4354 303.29 41.1044C303.672 40.1796 304.199 39.3474 304.784 38.5645C301.998 37.8487 299.055 37.758 296.186 38.2095C296.641 40.5188 296.56 42.9069 296.018 45.1569C295.342 47.8684 294.116 50.4123 292.434 52.6525C290.736 54.9144 288.333 56.8272 285.349 57.6239C283.873 58.0222 282.047 58.0459 280.42 57.2275C278.821 56.4308 277.64 54.8749 277.256 53.175C276.869 51.4929 277.106 49.8996 277.54 48.4758C277.993 47.052 278.662 45.7505 279.519 44.5614C282.802 40.1125 287.587 37.0638 292.81 35.6538C292.134 34.1393 291.125 32.8122 289.677 31.9169C287.723 30.6548 285.241 29.9607 282.818 30.217C280.389 30.4004 278.025 31.7 276.743 33.9402C276.72 33.9875 276.662 34.0052 276.615 33.9816C276.572 33.9599 276.556 33.9066 276.57 33.8613C277.053 32.6446 277.855 31.5185 278.932 30.6903C280.002 29.8423 281.31 29.3494 282.637 29.0614C283.971 28.7676 285.363 28.7341 286.724 28.9411C288.09 29.1206 289.443 29.5426 290.671 30.2387C292.678 31.2582 294.234 33.0823 295.198 35.1214C299.191 34.443 303.335 34.7152 307.196 36.0403C307.454 35.8274 307.702 35.6006 307.97 35.4054C309.936 33.9461 312.178 32.9522 314.438 32.1949C315.108 31.98 315.794 31.84 316.476 31.6724C315.218 26.7246 312.819 22.0194 309.554 18.1326C306.638 14.7033 303.057 11.8242 298.988 9.93106C294.956 7.96498 290.45 7.06772 285.955 6.93362C276.936 6.76009 267.776 10.0316 260.984 16.4209C266.926 9.19551 276.438 5.02078 285.969 4.96162C290.728 4.98923 295.573 5.89043 299.895 8.02019C304.252 10.0691 308.053 13.1513 311.135 16.8015C314.591 20.9743 317.129 25.9496 318.442 31.2287C321.784 30.6292 325.201 30.5247 328.547 30.8343C334.14 31.3273 339.494 32.8082 344.717 34.6126C346.381 34.234 348.068 33.9638 349.756 33.814C356.923 33.1178 364.165 34.376 370.973 36.4762C371.969 36.7759 372.949 37.1151 373.935 37.4405C375.829 33.5517 377.018 29.3198 377.221 24.9853C377.314 23.2164 377.227 21.4377 376.835 19.7713C376.723 19.8443 376.618 19.9291 376.506 20.0001C374.319 21.4199 371.622 22.4316 368.834 22.1121C367.462 21.9445 365.979 21.3056 365.111 20.0474C364.171 18.8346 364.057 17.1111 364.548 15.7445C365.019 14.3543 365.969 13.1494 367.261 12.3961C368.57 11.6191 370.147 11.4771 371.561 11.767C374.422 12.3487 376.754 14.4903 377.88 17.0598C377.979 17.2748 378.034 17.4996 378.117 17.7165C379.444 16.7029 380.67 15.5493 381.723 14.2419C384.923 10.3097 386.833 5.24953 386.713 0.0907817C386.711 0.0434537 386.749 0.00204642 386.798 7.44195e-05C386.845 -0.00189758 386.885 0.0355701 386.889 0.0828981C387.202 5.26926 385.508 10.5444 382.312 14.7053C381.202 16.1665 379.891 17.472 378.442 18.6118C379.098 20.7258 379.258 22.9325 379.191 25.0504C379.053 29.5761 377.919 34.0112 376.05 38.1208C380.613 39.7043 385.088 41.4693 389.578 43.1021C391.577 42.4927 393.525 41.7118 395.359 40.7002C399.381 38.4738 402.776 35.0208 404.596 30.7455C404.612 30.7081 404.655 30.6903 404.693 30.7061C404.73 30.7219 404.748 30.7652 404.732 30.8027C402.993 35.149 399.624 38.74 395.582 41.0906C393.947 42.0392 392.206 42.7846 390.424 43.4156C390.625 43.4886 390.826 43.5655 391.027 43.6365C397.646 45.9851 404.409 47.9256 411.274 48.531C418.124 49.1167 425.09 48.0774 430.942 44.6422C436.744 41.3371 441.478 35.7524 442.306 29.2448C442.706 26.066 442.202 22.7077 440.567 20.0987C439.725 18.7972 438.661 17.7224 437.355 17.0086C436.046 16.2849 434.496 15.8806 432.972 15.9102C429.94 15.8352 426.819 17.7106 426.456 20.8855C426.259 22.4335 426.521 24.1295 427.351 25.5789C428.177 27.0086 429.599 28.1523 431.397 28.3791C430.512 28.4383 429.583 28.3022 428.727 27.9078C427.897 27.4779 427.17 26.8567 426.559 26.131C425.391 24.6442 424.666 22.755 424.711 20.7593C424.717 18.7913 425.671 16.6457 427.274 15.3659C428.842 14.021 430.865 13.3032 432.866 13.1691C434.877 13.037 436.904 13.4452 438.738 14.3365C440.613 15.216 442.133 16.7325 443.223 18.389C445.445 21.7808 446.003 25.8767 445.471 29.6767C445.22 31.6073 444.597 33.4176 443.882 35.1865C443.071 36.91 442.121 38.5704 440.942 40.0494C438.611 43.0311 435.652 45.433 432.422 47.2571ZM376.545 18.807C376.437 18.4718 376.344 18.1306 376.204 17.8112C375.309 15.6578 373.426 13.9106 371.212 13.3801C370.12 13.1218 368.948 13.2085 368.012 13.7331C367.052 14.2458 366.267 15.1726 365.886 16.2119C365.494 17.2511 365.541 18.4126 366.178 19.2902C366.768 20.2111 367.836 20.7357 368.994 20.921C371.375 21.2582 373.854 20.4753 375.997 19.162C376.186 19.0516 376.362 18.9234 376.545 18.807ZM293.666 38.744C289.094 40.0041 284.918 42.6722 282.189 46.4821C280.903 48.2648 280.077 50.6627 280.497 52.3882C280.69 53.2204 281.233 53.8653 281.939 54.2537C282.627 54.6107 283.553 54.6817 284.553 54.4253C288.703 53.3466 291.878 48.8919 293.197 44.4194C293.704 42.5598 293.907 40.6213 293.666 38.744ZM346.408 35.2042C349.439 36.2947 352.434 37.47 355.403 38.6138C360.243 40.4379 365.194 42.2324 370.244 43.3663C371.279 42.0352 372.247 40.6528 373.073 39.1778C372.188 38.8603 371.306 38.527 370.415 38.2332C363.763 36.0403 356.842 34.5042 349.829 34.867C348.689 34.9222 347.548 35.0465 346.408 35.2042ZM309.163 36.8173C309.203 36.8351 309.244 36.8469 309.284 36.8666C312.277 38.251 314.85 40.148 317.257 42.1496C317.584 39.2251 317.462 36.2612 316.89 33.3565C316.255 33.5201 315.615 33.6601 314.992 33.8672C312.937 34.5574 310.902 35.5375 309.163 36.8173ZM316.516 45.5059C313.801 43.2086 311.064 41.0768 307.988 39.6905C307.552 39.4894 307.105 39.3198 306.657 39.1522C305.989 39.9607 305.429 40.8481 305.021 41.8183C304.175 43.7568 304.254 45.9181 305.102 47.8408C305.92 49.7339 307.564 51.3036 309.487 51.5146C311.448 51.7848 313.359 50.7653 314.639 49.095C315.459 48.0459 316.062 46.8075 316.516 45.5059ZM369.528 44.2557C364.546 43.2046 359.672 41.5363 354.959 39.8009C351.18 38.3949 347.398 36.9593 343.577 35.715C338.786 36.7739 334.206 38.8189 330.473 42.1279C333.705 38.8603 337.82 36.63 342.228 35.2772C337.705 33.8692 333.121 32.7787 328.413 32.4237C325.209 32.1654 321.979 32.3073 318.852 32.897C319.528 36.3776 319.653 39.9705 319.103 43.5478C319.093 43.5931 319.079 43.6385 319.069 43.6838C320.073 44.5554 321.058 45.4271 322.044 46.2691C325.879 49.6412 329.935 52.4572 334.687 53.9481C344.042 57.0362 354.92 55.8688 363.096 50.2052C365.506 48.5468 367.645 46.5136 369.528 44.2557ZM385.585 44.0723C382.115 42.6663 378.671 41.2385 375.195 39.9311C374.479 41.2938 373.686 42.617 372.801 43.879C375.896 44.4174 379.026 44.6816 382.194 44.4706C383.332 44.3977 384.463 44.2636 385.585 44.0723ZM470.698 34.2754L470.753 34.1748C470.876 33.9402 470.976 33.6917 471.053 33.4294C471.686 31.2602 470.442 28.9885 468.273 28.3555C466.104 27.7224 463.833 28.9668 463.2 31.136C459.706 43.108 448.123 53.5714 434.09 55.4448C448.205 56.277 463.297 48.2825 470.698 34.2754ZM480.352 37.3261C478.524 37.0106 476.789 38.2372 476.473 40.0652C475.265 47.0776 468.784 53.952 460.337 55.3107C460.312 55.3147 460.292 55.3344 460.29 55.362C460.288 55.3936 460.31 55.4212 460.341 55.4231C468.894 56.2297 478.415 51.2898 482.747 42.2166L482.82 42.0648C482.946 41.7966 483.039 41.5087 483.092 41.203C483.404 39.377 482.179 37.6416 480.352 37.3261ZM50.7169 47.2571C53.9623 49.0634 57.4877 50.3512 61.1491 50.9704C64.7947 51.6191 68.4817 51.6467 72.1115 51.3411C79.387 50.6785 86.3194 48.4778 92.956 45.9023C94.137 45.4468 95.3043 44.9735 96.4754 44.5022C97.9305 44.8256 99.3994 45.0879 100.884 45.218C104.303 45.5119 107.684 45.291 111.018 44.7526C113.156 47.6081 115.683 50.1776 118.6 52.2679C127.37 58.5803 139.148 60.0849 149.365 56.7286C154.535 55.1589 159.157 51.9702 163.057 48.5625C163.719 47.9986 164.374 47.4326 165.028 46.8686C165.517 48.0794 166.144 49.2429 166.976 50.3058C167.769 51.2957 168.763 52.191 169.971 52.7767C171.18 53.3703 172.558 53.5892 173.903 53.4215C176.689 53.0725 178.785 50.925 179.774 48.6099C180.825 46.2948 180.891 43.4354 179.849 41.1044C179.467 40.1796 178.941 39.3474 178.355 38.5645C181.141 37.8487 184.085 37.758 186.953 38.2095C186.496 40.5188 186.579 42.9069 187.121 45.1569C187.797 47.8684 189.024 50.4123 190.705 52.6525C192.403 54.9144 194.807 56.8272 197.79 57.6239C199.266 58.0222 201.092 58.0459 202.719 57.2275C204.318 56.4308 205.499 54.8749 205.883 53.175C206.27 51.4929 206.033 49.8996 205.599 48.4758C205.146 47.052 204.478 45.7505 203.62 44.5614C200.335 40.1125 195.552 37.0638 190.329 35.6538C191.005 34.1393 192.015 32.8122 193.462 31.9169C195.416 30.6548 197.898 29.9607 200.321 30.217C202.75 30.4004 205.114 31.7 206.396 33.9402C206.42 33.9875 206.477 34.0052 206.524 33.9816C206.568 33.9599 206.583 33.9066 206.57 33.8613C206.085 32.6446 205.284 31.5185 204.207 30.6903C203.139 29.8423 201.83 29.3494 200.503 29.0614C199.168 28.7676 197.776 28.7341 196.415 28.9411C195.049 29.1206 193.696 29.5426 192.468 30.2387C190.461 31.2582 188.905 33.0823 187.941 35.1214C183.949 34.443 179.804 34.7152 175.944 36.0403C175.685 35.8274 175.437 35.6006 175.169 35.4054C173.203 33.9461 170.961 32.9522 168.702 32.1949C168.031 31.98 167.345 31.84 166.663 31.6724C167.921 26.7246 170.32 22.0194 173.585 18.1326C176.502 14.7033 180.082 11.8242 184.152 9.93106C188.184 7.96498 192.689 7.06772 197.184 6.93362C206.203 6.76009 215.363 10.0316 222.156 16.4209C216.213 9.19551 206.702 5.02078 197.171 4.96162C192.411 4.98923 187.567 5.89043 183.245 8.02019C178.887 10.0691 175.086 13.1513 172.004 16.8015C168.548 20.9743 166.01 25.9496 164.697 31.2287C161.355 30.6292 157.938 30.5247 154.592 30.8343C148.999 31.3273 143.646 32.8082 138.423 34.6126C136.759 34.234 135.071 33.9638 133.383 33.814C126.216 33.1178 118.974 34.376 112.166 36.4762C111.17 36.7759 110.19 37.1151 109.205 37.4405C107.312 33.5517 106.121 29.3198 105.918 24.9853C105.825 23.2164 105.912 21.4377 106.304 19.7713C106.417 19.8443 106.521 19.9291 106.633 20.0001C108.82 21.4199 111.517 22.4316 114.305 22.1121C115.678 21.9445 117.16 21.3056 118.028 20.0474C118.968 18.8346 119.083 17.1111 118.592 15.7445C118.12 14.3543 117.17 13.1494 115.879 12.3961C114.569 11.6191 112.992 11.4771 111.578 11.767C108.718 12.3487 106.385 14.4903 105.259 17.0598C105.161 17.2748 105.107 17.4996 105.023 17.7165C103.696 16.7029 102.469 15.5493 101.416 14.2419C98.2165 10.3097 96.3059 5.24953 96.4262 0.0907817C96.4281 0.0434537 96.3907 0.00204642 96.3414 7.44195e-05C96.2941 -0.00189758 96.2546 0.0355701 96.2506 0.0828981C95.9371 5.26926 97.6308 10.5444 100.827 14.7053C101.937 16.1665 103.248 17.472 104.697 18.6118C104.041 20.7258 103.881 22.9325 103.95 25.0504C104.086 29.5761 105.222 34.0112 107.091 38.1208C102.527 39.7043 98.0528 41.4693 93.5613 43.1021C91.562 42.4927 89.614 41.7118 87.7804 40.7002C83.7582 38.4738 80.363 35.0208 78.5431 30.7455C78.5273 30.7081 78.4839 30.6903 78.4465 30.7061C78.409 30.7219 78.3913 30.7652 78.4071 30.8027C80.1461 35.149 83.5176 38.74 87.5576 41.0906C89.1921 42.0392 90.9331 42.7846 92.7154 43.4156C92.5143 43.4886 92.3132 43.5655 92.1121 43.6365C85.4932 45.9851 78.7304 47.9256 71.8651 48.531C65.0155 49.1167 58.0496 48.0774 52.1977 44.6422C46.395 41.3371 41.661 35.7524 40.8329 29.2448C40.4327 26.066 40.9375 22.7077 42.572 20.0987C43.4139 18.7972 44.4786 17.7224 45.7838 17.0086C47.093 16.2849 48.6427 15.8806 50.1668 15.9102C53.1993 15.8352 56.3204 17.7106 56.6832 20.8855C56.8804 22.4335 56.6182 24.1295 55.7881 25.5789C54.962 27.0086 53.5404 28.1523 51.7422 28.3791C52.6275 28.4383 53.5562 28.3022 54.4119 27.9078C55.242 27.4779 55.9695 26.8567 56.5807 26.131C57.7479 24.6442 58.4735 22.755 58.4281 20.7593C58.4222 18.7913 57.468 16.6457 55.865 15.3659C54.2975 14.021 52.2745 13.3032 50.2733 13.1691C48.2622 13.037 46.2353 13.4452 44.4017 14.3365C42.5266 15.216 41.0065 16.7325 39.9161 18.389C37.6941 21.7808 37.1361 25.8767 37.6685 29.6767C37.9189 31.6073 38.5419 33.4176 39.2576 35.1865C40.068 36.91 41.0183 38.5704 42.1974 40.0494C44.5279 43.0311 47.4873 45.433 50.7169 47.2571ZM106.594 18.807C106.702 18.4718 106.795 18.1306 106.935 17.8112C107.83 15.6578 109.713 13.9106 111.927 13.3801C113.02 13.1218 114.191 13.2085 115.127 13.7331C116.088 14.2458 116.872 15.1726 117.253 16.2119C117.645 17.2511 117.598 18.4126 116.961 19.2902C116.372 20.2111 115.303 20.7357 114.146 20.921C111.764 21.2582 109.285 20.4753 107.142 19.162C106.953 19.0516 106.777 18.9234 106.594 18.807ZM189.473 38.744C194.045 40.0041 198.221 42.6722 200.95 46.4821C202.236 48.2648 203.062 50.6627 202.642 52.3882C202.449 53.2204 201.906 53.8653 201.201 54.2537C200.513 54.6107 199.586 54.6817 198.586 54.4253C194.436 53.3466 191.261 48.8919 189.942 44.4194C189.436 42.5598 189.233 40.6213 189.473 38.744ZM136.731 35.2042C133.701 36.2947 130.706 37.47 127.736 38.6138C122.894 40.4379 117.943 42.2324 112.896 43.3663C111.86 42.0352 110.89 40.6528 110.066 39.1778C110.951 38.8603 111.833 38.527 112.726 38.2332C119.378 36.0403 126.299 34.5042 133.312 34.867C134.45 34.9222 135.591 35.0465 136.731 35.2042ZM173.976 36.8173C173.936 36.8351 173.895 36.8469 173.856 36.8666C170.863 38.251 168.29 40.148 165.882 42.1496C165.555 39.2251 165.677 36.2612 166.249 33.3565C166.884 33.5201 167.525 33.6601 168.148 33.8672C170.202 34.5574 172.237 35.5375 173.976 36.8173ZM166.623 45.5059C169.338 43.2086 172.075 41.0768 175.151 39.6905C175.587 39.4894 176.034 39.3198 176.484 39.1522C177.152 39.9607 177.712 40.8481 178.12 41.8183C178.966 43.7568 178.887 45.9181 178.039 47.8408C177.221 49.7339 175.577 51.3036 173.654 51.5146C171.693 51.7848 169.782 50.7653 168.502 49.095C167.68 48.0459 167.077 46.8075 166.623 45.5059ZM113.611 44.2557C118.594 43.2046 123.468 41.5363 128.18 39.8009C131.96 38.3949 135.741 36.9593 139.562 35.715C144.353 36.7739 148.934 38.8189 152.666 42.1279C149.434 38.8603 145.322 36.63 140.911 35.2772C145.434 33.8692 150.018 32.7787 154.726 32.4237C157.93 32.1654 161.16 32.3073 164.287 32.897C163.611 36.3776 163.487 39.9705 164.037 43.5478C164.046 43.5931 164.06 43.6385 164.07 43.6838C163.067 44.5554 162.081 45.4271 161.095 46.2691C157.26 49.6412 153.204 52.4572 148.453 53.9481C139.097 57.0362 128.219 55.8688 120.043 50.2052C117.633 48.5468 115.494 46.5136 113.611 44.2557ZM97.552 44.0723C101.022 42.6663 104.467 41.2385 107.943 39.9311C108.658 41.2938 109.451 42.617 110.336 43.879C107.241 44.4174 104.112 44.6816 100.941 44.4706C99.8076 44.3977 98.6758 44.2636 97.552 44.0723ZM49.0509 55.4429C35.0185 53.5695 23.4369 43.106 19.9412 31.134C19.3083 28.9648 17.0369 27.7205 14.8681 28.3535C12.6992 28.9865 11.4551 31.2582 12.088 33.4274C12.1649 33.6897 12.2654 33.9402 12.3877 34.1729L12.4429 34.2734C19.8426 48.2825 34.9317 56.277 49.0509 55.4429ZM0.0489695 41.205C0.102205 41.5107 0.19486 41.8006 0.319075 42.0668L0.392062 42.2186C4.72185 51.2918 14.2431 56.2316 22.7962 55.4251C22.8277 55.4212 22.8494 55.3935 22.8474 55.364C22.8454 55.3383 22.8237 55.3166 22.8001 55.3127C14.3534 53.952 7.87257 47.0796 6.66394 40.0672C6.34847 38.2391 4.61338 37.0125 2.78565 37.3281C0.959882 37.6416 -0.264526 39.377 0.0489695 41.205Z" fill="url(#paint0_radial_1141_26785)"/>
<defs>
<radialGradient id="paint0_radial_1141_26785" cx="0" cy="0" r="1" gradientUnits="userSpaceOnUse" gradientTransform="translate(241.57 30.9964) scale(172.215 172.244)">
<stop stop-color="#F9DFB2"/>
<stop offset="0.7411" stop-color="#F2C26F"/>
<stop offset="1" stop-color="#DDA75A"/>
</radialGradient>
</defs>
</svg>
