<svg width="496" height="44" viewBox="0 0 496 44" fill="none" xmlns="http://www.w3.org/2000/svg">
<path d="M477.771 21.3416C470.781 26.031 462.924 29.3498 454.767 31.1029C447.303 32.7042 439.588 32.7792 432.064 31.7202C432.397 31.5565 432.746 31.4303 433.075 31.2568C444.081 25.3605 452.492 15.185 456.27 3.56987H456.268C451.869 14.9641 443.005 24.4218 432.188 29.4761C430.887 30.0795 429.552 30.6001 428.197 31.0615C420.93 29.6082 413.903 27.0544 407.303 23.5364C408.895 19.8941 409.518 15.6641 408.299 11.7044C407.016 7.36005 403.751 3.36283 399.204 1.99229C394.825 0.611895 389.551 1.60774 386.477 5.25002C383.515 8.75032 382.839 14.1753 385.584 17.9359C388.326 21.523 393.727 22.7081 397.28 20.2471L397.274 20.2352C393.478 22.154 388.669 20.4916 386.636 17.2082C384.554 13.9071 385.394 9.29461 387.985 6.60283C390.58 3.88147 394.9 3.1952 398.417 4.40403C401.952 5.60104 404.656 8.81935 405.683 12.4676C406.744 16.1118 406.079 20.1662 404.281 23.635C402.498 27.1353 399.6 30.0223 396.302 32.3394C389.59 36.9085 381.658 39.8211 373.541 40.817C357.259 43.0059 340.166 36.9854 328.66 25.0923C323.788 20.2826 320.44 13.913 315.449 8.90218C317.431 8.18634 319.426 7.5119 321.443 6.9065C328.762 4.75899 336.369 3.11239 343.905 2.67264C347.661 2.46952 351.438 2.69235 354.952 3.77695C358.483 4.84183 361.632 6.81383 363.743 9.78563C365.861 12.6924 367.085 16.3682 366.618 19.8764C366.383 21.6216 365.646 23.2879 364.54 24.6525C363.4 25.9955 361.859 27.0288 360.151 27.6164C356.76 28.8213 352.631 28.1982 350.094 25.4374C347.556 22.7712 346.464 18.5275 347.954 14.9207L347.903 14.897C346.046 18.3875 346.824 22.9645 349.407 26.0467C350.687 27.6086 352.513 28.7937 354.518 29.2808C356.521 29.7955 358.653 29.6752 360.626 29.0836C362.604 28.49 364.443 27.3798 365.875 25.8259C367.275 24.2463 368.235 22.2822 368.604 20.2037C369.369 16.0112 367.977 11.7714 365.611 8.43677C364.416 6.75663 362.943 5.26382 361.222 4.08062C359.496 2.90334 357.637 2.05538 355.697 1.4204C351.811 0.164234 347.737 -0.121716 343.778 0.0419596C339.803 0.245076 335.931 0.897826 332.096 1.65113C328.259 2.42021 324.462 3.38254 320.722 4.53222C318.265 5.2875 315.844 6.15319 313.444 7.0682C313.05 6.73493 312.679 6.38194 312.261 6.06839C308.894 3.51662 304.651 1.72409 300.339 2.20723C296.137 2.64107 291.967 5.35257 290.76 9.46222C292.156 5.40384 296.358 3.03942 300.392 2.73574C304.52 2.41233 308.521 4.25417 311.68 6.81975C311.936 7.02681 312.159 7.26343 312.405 7.47641C307.86 9.25712 303.416 11.2903 299.134 13.6291C292.186 17.2615 286.198 22.4774 279.005 24.6861C275.45 25.7549 271.584 26.0625 268.07 24.9779C264.535 23.9623 261.668 21.2055 260.481 17.7052C259.886 15.9816 259.756 14.0767 260.268 12.3354C260.738 10.5606 261.948 9.09345 263.587 8.23366C265.217 7.3719 267.149 7.07806 268.991 7.38174C269.904 7.56514 270.787 7.89447 271.568 8.41113C272.325 8.95935 272.934 9.689 273.362 10.533L273.628 10.4167C273.226 9.50559 272.615 8.68918 271.826 8.05814C271.016 7.45866 270.083 7.05441 269.107 6.80988C267.143 6.37407 265.049 6.62255 263.214 7.50009C261.376 8.35594 259.864 10.0558 259.277 12.0258C258.622 13.982 258.693 16.1355 259.284 18.0798C259.852 20.044 260.941 21.8385 262.36 23.3175C263.794 24.8142 265.651 25.8515 267.571 26.5042C271.475 27.7979 275.677 27.5356 279.522 26.4747C283.398 25.3881 286.913 23.4851 290.263 21.4993C293.609 19.48 296.859 17.4804 300.24 15.6721C304.789 13.2248 309.517 11.1207 314.353 9.31628C319.188 14.3804 322.394 20.9747 327.48 26.2104C333.305 32.4064 340.563 37.2832 348.577 40.255C356.574 43.3057 365.34 44.2483 373.834 43.2268C381.851 42.2881 389.643 39.5944 396.52 35.2659C402.648 36.8139 408.976 37.0919 415.167 36.4786C419.22 36.0467 423.227 35.1436 427.075 33.7947C427.856 33.9604 428.637 34.128 429.424 34.2621C437.991 35.7727 446.853 35.4177 455.292 33.4437C463.746 31.4697 471.698 27.6519 478.623 22.5524C485.585 17.4843 491.401 10.9452 495.745 3.63101C490.969 10.6967 484.725 16.6206 477.771 21.3416ZM414.93 33.566C410.054 33.8637 405.148 33.4753 400.416 32.4676C402.842 30.4226 404.981 27.9793 406.517 25.116C411.328 28.4191 416.695 30.9156 422.32 32.5879C419.879 33.075 417.408 33.42 414.93 33.566ZM17.9856 21.3416C24.9752 26.031 32.8322 29.3498 40.989 31.1029C48.4538 32.7042 56.1689 32.7792 63.6928 31.7202C63.3596 31.5565 63.0106 31.4303 62.6814 31.2568C51.6755 25.3605 43.2644 15.185 39.4866 3.56987C43.8854 14.9641 52.7501 24.4218 63.5667 29.4761C64.868 30.0795 66.2028 30.6001 67.5573 31.0615C74.8249 29.6082 81.8519 27.0544 88.4511 23.5364C86.86 19.8941 86.2369 15.6641 87.4554 11.7044C88.739 7.36005 92.004 3.36086 96.5507 1.99229C100.93 0.611895 106.204 1.60774 109.278 5.25002C112.239 8.75032 112.916 14.1753 110.169 17.9359C107.426 21.523 102.026 22.7081 98.473 20.2471L98.479 20.2352C102.274 22.154 107.083 20.4916 109.116 17.2082C111.198 13.9071 110.358 9.29461 107.768 6.60283C105.173 3.88147 100.853 3.1952 97.3354 4.40403C93.8002 5.60104 91.097 8.81935 90.0698 12.4676C89.009 16.1118 89.6735 20.1662 91.4717 23.635C93.254 27.1353 96.1524 30.0223 99.451 32.3394C106.163 36.9085 114.095 39.8211 122.214 40.817C138.496 43.0059 155.586 36.9854 167.095 25.0923C171.967 20.2826 175.315 13.913 180.305 8.90218C178.324 8.18634 176.328 7.5119 174.311 6.9065C166.993 4.75899 159.386 3.11239 151.85 2.67264C148.094 2.46952 144.316 2.69235 140.803 3.77695C137.272 4.84183 134.123 6.81383 132.009 9.78563C129.892 12.6924 128.667 16.3682 129.135 19.8764C129.369 21.6216 130.107 23.2879 131.213 24.6525C132.352 25.9955 133.894 27.0288 135.602 27.6164C138.993 28.8213 143.122 28.1982 145.659 25.4374C148.197 22.7712 149.287 18.5275 147.798 14.9207L147.85 14.897C149.707 18.3875 148.928 22.9645 146.345 26.0467C145.066 27.6086 143.24 28.7937 141.235 29.2808C139.231 29.7955 137.1 29.6752 135.126 29.0836C133.149 28.49 131.309 27.3798 129.878 25.8259C128.478 24.2463 127.518 22.2822 127.149 20.2037C126.384 16.0112 127.776 11.7714 130.14 8.43677C131.335 6.75663 132.808 5.26382 134.529 4.08062C136.256 2.90334 138.113 2.05538 140.054 1.4204C143.94 0.164234 148.013 -0.121716 151.972 0.0419596C155.947 0.245076 159.82 0.897826 163.655 1.65113C167.491 2.42021 171.289 3.38254 175.029 4.53222C177.486 5.2875 179.905 6.15319 182.306 7.0682C182.701 6.73493 183.073 6.38194 183.489 6.06839C186.857 3.51662 191.1 1.72409 195.412 2.20723C199.614 2.64107 203.784 5.35257 204.991 9.46222C203.595 5.40384 199.393 3.03942 195.359 2.73574C191.23 2.41233 187.23 4.25417 184.071 6.81975C183.815 7.02681 183.592 7.26343 183.346 7.47641C187.89 9.25712 192.334 11.2903 196.615 13.6291C203.563 17.2615 209.551 22.4774 216.744 24.6861C220.299 25.7549 224.165 26.0625 227.679 24.9779C231.214 23.9623 234.081 21.2055 235.268 17.7052C235.863 15.9816 235.993 14.0767 235.48 12.3354C235.011 10.5606 233.801 9.09345 232.16 8.23366C230.53 7.3719 228.597 7.07806 226.756 7.38174C225.843 7.56514 224.96 7.89447 224.179 8.41113C223.422 8.95935 222.812 9.689 222.385 10.533L222.118 10.4167C222.523 9.50756 223.134 8.68918 223.921 8.05814C224.731 7.45866 225.663 7.05441 226.639 6.80988C228.603 6.37407 230.697 6.62255 232.533 7.50009C234.37 8.35594 235.883 10.0558 236.47 12.0258C237.125 13.982 237.054 16.1355 236.462 18.0798C235.894 20.044 234.806 21.8385 233.386 23.3175C231.953 24.8142 230.096 25.8515 228.175 26.5042C224.271 27.7979 220.07 27.5356 216.225 26.4747C212.349 25.3881 208.833 23.4851 205.483 21.4993C202.138 19.48 198.888 17.4804 195.507 15.6721C190.958 13.2248 186.232 11.1207 181.394 9.31628C176.559 14.3804 173.353 20.9747 168.266 26.2104C162.442 32.4064 155.184 37.2832 147.169 40.255C139.172 43.3057 130.406 44.2483 121.912 43.2268C113.895 42.2881 106.103 39.5944 99.2263 35.2659C93.0983 36.8139 86.7712 37.0919 80.5802 36.4786C76.5264 36.0467 72.52 35.1436 68.6713 33.7947C67.8905 33.9604 67.1097 34.128 66.323 34.2621C57.7561 35.7727 48.8935 35.4177 40.4547 33.4437C32.0002 31.4697 24.0484 27.6519 17.1239 22.5524C10.162 17.4843 4.34556 10.9452 0 3.63101C4.78721 10.6967 11.0315 16.6206 17.9856 21.3416ZM80.8247 33.566C85.7006 33.8637 90.6061 33.4753 95.3381 32.4676C92.9129 30.4226 90.7737 27.9793 89.2378 25.116C84.4269 28.4191 79.058 30.9156 73.4368 32.5879C75.8777 33.075 78.3482 33.42 80.8247 33.566Z" fill="url(#paint0_radial_1141_26788)"/>
<defs>
<radialGradient id="paint0_radial_1141_26788" cx="0" cy="0" r="1" gradientUnits="userSpaceOnUse" gradientTransform="translate(247.878 21.8142) scale(175.947 175.976)">
<stop stop-color="#F9DFB2"/>
<stop offset="0.7411" stop-color="#F2C26F"/>
<stop offset="1" stop-color="#DDA75A"/>
</radialGradient>
</defs>
</svg>
